# xmcd CD database file
#
# Track frame offsets:
#	150
#	4332
#	40662
#	83163
#	119163
#	144453
#	171554
#	196721
#
# Disc length: 3098 seconds
#
# Revision: 0
# Processed by: cddbd v1.5.2PL0 Copyright (c) Steve Scherf et al.
# Submitted via: CDex 1.82
#
DISCID=6a0c1808
DTITLE=Michal Kobojek - The Outside
DYEAR=2016
DGENRE=Jazz
TTITLE0=Intro
TTITLE1=Walczyk dla Pani
TTITLE2=Seven Steps
TTITLE3=Aurora
TTITLE4=Kontrewers
TTITLE5=Dyspensa
TTITLE6=Impresje Polskie
TTITLE7=Imago
EXTD=YEAR: 2016
EXTT0=
EXTT1=
EXTT2=
EXTT3=
EXTT4=
EXTT5=
EXTT6=
EXTT7=
PLAYORDER=
